<?xml version="1.0" encoding="iso-8859-1"?>
<!-- Generator: Adobe Illustrator 19.1.0, SVG Export Plug-In . SVG Version: 6.00 Build 0)  -->
<svg version="1.1" id="Capa_1" xmlns="http://www.w3.org/2000/svg" xmlns:xlink="http://www.w3.org/1999/xlink" x="0px" y="0px"
	 viewBox="0 0 486 486" style="enable-background:new 0 0 486 486;" xml:space="preserve">
<g>
	<g>
		<path d="M340.85,292c-4.7-4.7-12.3-4.7-17,0l-68.8,68.8V12c0-6.6-5.4-12-12-12s-12,5.4-12,12v348.8l-68.8-68.8
			c-4.7-4.7-12.3-4.7-17,0s-4.7,12.3,0,17l89.3,89.3c2.3,2.3,5.4,3.5,8.5,3.5s6.1-1.2,8.5-3.5l89.3-89.3
			C345.55,304.3,345.55,296.7,340.85,292z"/>
		<path d="M445.65,384.9c3.2,0,6.3-1.3,8.5-3.5s3.5-5.3,3.5-8.5s-1.3-6.3-3.5-8.5s-5.3-3.5-8.5-3.5s-6.3,1.3-8.5,3.5
			s-3.5,5.3-3.5,8.5s1.3,6.3,3.5,8.5C439.45,383.6,442.55,384.9,445.65,384.9z"/>
		<path d="M445.65,411.5c-6.6,0-12,5.4-12,12s5.4,12,12,12s12-5.4,12-12C457.65,416.8,452.35,411.5,445.65,411.5z"/>
		<path d="M445.65,462c-3.2,0-6.3,1.3-8.5,3.5s-3.5,5.3-3.5,8.5s1.3,6.3,3.5,8.5s5.3,3.5,8.5,3.5s6.3-1.3,8.5-3.5s3.5-5.3,3.5-8.5
			s-1.3-6.3-3.5-8.5S448.85,462,445.65,462z"/>
		<path d="M400.65,462c-6.6,0-12,5.4-12,12s5.4,12,12,12s12-5.4,12-12S407.35,462,400.65,462z"/>
		<path d="M220.55,462c-6.6,0-12,5.4-12,12s5.4,12,12,12s12-5.4,12-12S227.15,462,220.55,462z"/>
		<path d="M175.45,462c-6.6,0-12,5.4-12,12s5.4,12,12,12s12-5.4,12-12S182.15,462,175.45,462z"/>
		<path d="M310.55,462c-6.6,0-12,5.4-12,12s5.4,12,12,12s12-5.4,12-12S317.25,462,310.55,462z"/>
		<path d="M265.55,462c-6.6,0-12,5.4-12,12s5.4,12,12,12s12-5.4,12-12S272.15,462,265.55,462z"/>
		<path d="M85.45,462c-6.6,0-12,5.4-12,12s5.4,12,12,12s12-5.4,12-12S92.05,462,85.45,462z"/>
		<path d="M355.65,462c-6.6,0-12,5.4-12,12s5.4,12,12,12s12-5.4,12-12S362.25,462,355.65,462z"/>
		<path d="M130.45,462c-6.6,0-12,5.4-12,12s5.4,12,12,12c6.6,0,12-5.4,12-12S137.05,462,130.45,462z"/>
		<path d="M40.35,462c-3.2,0-6.3,1.3-8.5,3.5s-3.5,5.3-3.5,8.5s1.3,6.3,3.5,8.5s5.3,3.5,8.5,3.5c3.2,0,6.3-1.3,8.5-3.5
			c2.2-2.2,3.5-5.3,3.5-8.5s-1.3-6.3-3.5-8.5C46.65,463.3,43.55,462,40.35,462z"/>
		<path d="M40.35,411.5c-6.6,0-12,5.4-12,12s5.4,12,12,12s12-5.4,12-12C52.35,416.8,47.05,411.5,40.35,411.5z"/>
		<path d="M40.35,360.9c-3.2,0-6.3,1.3-8.5,3.5s-3.5,5.3-3.5,8.5s1.3,6.3,3.5,8.5s5.3,3.5,8.5,3.5c3.2,0,6.3-1.3,8.5-3.5
			c2.2-2.2,3.5-5.3,3.5-8.5s-1.3-6.3-3.5-8.5C46.65,362.2,43.55,360.9,40.35,360.9z"/>
	</g>
</g>
<g>
</g>
<g>
</g>
<g>
</g>
<g>
</g>
<g>
</g>
<g>
</g>
<g>
</g>
<g>
</g>
<g>
</g>
<g>
</g>
<g>
</g>
<g>
</g>
<g>
</g>
<g>
</g>
<g>
</g>
</svg>
